<?xml version="1.0" encoding="utf-8"?>
<!-- Generator: Adobe Illustrator 24.1.0, SVG Export Plug-In . SVG Version: 6.00 Build 0)  -->
<svg version="1.1" id="Layer_1" xmlns="http://www.w3.org/2000/svg" xmlns:xlink="http://www.w3.org/1999/xlink" x="0px" y="0px"
	 viewBox="0 0 360 360" style="enable-background:new 0 0 360 360;" xml:space="preserve">
<style type="text/css">
	.st0{fill:#C4DEE9;}
	.st1{fill:#156DA4;}
	.st2{fill:#2A4D7B;}
	.st3{fill:#EA5531;}
	.st4{fill:#1E93C5;}
	.st5{fill:none;stroke:#DEAA7B;stroke-width:20.2457;stroke-miterlimit:10;}
	.st6{fill:#FFFFFF;}
	.st7{fill:#17547A;}
	.st8{fill:#FFFFFF;stroke:#17547A;stroke-width:3.8;stroke-miterlimit:10;}
</style>
<rect x="0.18" y="0.23" class="st0" width="359.59" height="359.33"/>
<rect x="112.26" y="201.41" class="st4" width="148.45" height="158.66"/>
<path class="st3" d="M135.09,259.17c-0.13-0.44-0.87-3.78-2.34-8.52c-2.08-6.76-5.09-15.55-5.25-15.88c0.01,0.3,0.76,9.7,1.81,17.93
	c1.11,8.68,2.51,16.21,2.51,16.21s9.61-6.35,10.24-6.72l0.03,0.11c0,0,1.28,5.64,3.16,11.68c2.36,7.55,5.45,15.86,5.63,16.21
	c-0.01-0.33-0.82-9.06-2.1-17.92c-1.43-9.93-3.34-20.09-3.34-20.09S135.76,258.77,135.09,259.17z"/>
<path class="st3" d="M157.8,247.74c0.14-0.43,1.43-3.6,2.92-8.33c2.13-6.74,4.66-15.69,4.71-16.05c-0.17,0.25-4.89,8.41-8.71,15.77
	c-4.03,7.77-7.16,14.76-7.16,14.76s11.52,0.24,12.25,0.3l-0.04,0.1c0,0-2.16,5.37-4.04,11.4c-2.36,7.55-4.54,16.15-4.59,16.53
	c0.18-0.28,4.48-7.92,8.47-15.93c4.47-8.98,8.69-18.42,8.69-18.42S158.57,247.79,157.8,247.74z"/>
<g>
	<g>
		<g>
			<path class="st6" d="M255.29,145.61c-0.35-0.12-35.36-12.38-39.14-13.9c-0.87-0.35-2-0.76-3.19-1.19
				c-2.55-0.93-5.72-2.08-7.59-3.1c-0.7-0.38-1.14-1.14-1.15-1.98l-0.18-17.57l-24.06,5.39l-25.14-5.37l-0.18,17.68
				c-0.01,0.79-0.41,1.53-1.05,1.93c-1.89,1.16-5.16,2.43-7.79,3.45c-0.72,0.28-1.4,0.54-1.98,0.77
				c-3.77,1.52-38.78,13.77-39.13,13.89c-0.7,0.24-17.12,6.06-20.74,22.55c-2,9.09-3.03,52.27-3.55,55.05h199.13
				c-0.52-2.78-1.55-45.96-3.55-55.05C272.4,151.67,255.98,145.85,255.29,145.61z"/>
			<path class="st7" d="M280.7,209.74c-0.64-15.09-1.52-35.75-2.89-41.98c-3.84-17.49-21.19-23.64-21.96-23.9
				c-13.13-4.6-36.12-12.69-39.02-13.85c-0.9-0.36-2.03-0.77-3.25-1.22c-2.49-0.9-5.59-2.03-7.33-2.99
				c-0.11-0.06-0.19-0.22-0.19-0.39l-0.18-17.57c-0.01-0.56-0.26-1.08-0.7-1.42c-0.44-0.35-1-0.47-1.54-0.35l-23.66,5.3l-24.75-5.28
				c-0.54-0.12-1.1,0.02-1.53,0.36c-0.43,0.35-0.68,0.87-0.69,1.42l-0.18,17.68c0,0.18-0.09,0.33-0.18,0.38
				c-1.75,1.08-4.93,2.31-7.49,3.3l-0.06,0.02c-0.71,0.27-1.37,0.53-1.94,0.76c-3.74,1.5-38.7,13.74-39.04,13.86
				c-0.74,0.25-18.1,6.41-21.93,23.89c-1.37,6.23-2.24,26.88-2.89,41.96c-0.27,6.35-0.52,12.34-0.67,13.16
				c-0.1,0.54,0.04,1.09,0.39,1.51c0.35,0.42,0.87,0.66,1.41,0.66h199.13c0.55,0,1.06-0.24,1.41-0.66c0.35-0.42,0.49-0.97,0.4-1.51
				C281.22,222.07,280.97,216.08,280.7,209.74z M82.44,221.37c0.13-2.17,0.3-5.88,0.53-11.5c0.6-14.1,1.5-35.41,2.8-41.32
				c3.4-15.49,18.88-20.98,19.55-21.21c0.35-0.12,35.4-12.39,39.21-13.92c0.56-0.22,1.2-0.47,1.89-0.74l0.06-0.02
				c2.7-1.04,6.06-2.34,8.09-3.6c1.17-0.72,1.91-2.05,1.92-3.47l0.16-15.43l22.94,4.9c0.26,0.06,0.53,0.05,0.79,0l21.84-4.89
				l0.15,15.3c0.02,1.5,0.82,2.87,2.1,3.58c1.99,1.09,5.23,2.27,7.86,3.22c1.17,0.43,2.28,0.83,3.12,1.17
				c3.65,1.47,35.55,12.64,39.17,13.91c0,0,0.05,0.02,0.05,0.02c0.66,0.23,16.13,5.71,19.53,21.2c1.3,5.92,2.2,27.24,2.8,41.35
				c0.24,5.6,0.4,9.31,0.53,11.47H82.44z"/>
		</g>
		<path class="st7" d="M277.43,167.83c-3.8-17.3-20.96-23.39-21.69-23.64c-0.34-0.12-35.32-12.36-39.06-13.87
			c-0.89-0.36-2.03-0.77-3.23-1.21c-2.5-0.91-5.62-2.04-7.39-3.01c-0.23-0.13-0.37-0.38-0.38-0.68l-0.16-15.73l-0.04-3.67
			l-3.47,0.78l-22.02,4.93l-23.12-4.94l-3.44-0.74l-0.04,3.64l-0.16,15.87c0,0.27-0.13,0.53-0.34,0.66
			c-1.78,1.1-5.12,2.39-7.56,3.33c-0.72,0.28-1.4,0.54-2,0.78c-3.74,1.51-38.72,13.75-39.08,13.87
			c-0.71,0.25-17.88,6.33-21.68,23.63c-2,9.12-3.04,27.3-3.56,30.09l-0.05,0.28h2.95c0.54-2.86,1.56-20.95,3.48-29.7
			c3.48-15.85,19.78-21.46,19.78-21.46s35.35-12.37,39.2-13.92c2.72-1.09,7.45-2.76,9.99-4.33c1.08-0.67,1.74-1.88,1.76-3.2
			l0.16-15.87l23.72,5.06l22.62-5.06l0.16,15.73c0.02,1.39,0.75,2.65,1.92,3.29c2.85,1.56,8.19,3.27,10.93,4.37
			c3.85,1.55,39.2,13.92,39.2,13.92s16.3,5.61,19.78,21.46c1.92,8.75,2.95,26.84,3.48,29.7h2.95l-0.05-0.28
			C280.47,195.12,279.43,176.95,277.43,167.83z"/>
	</g>
	<g>
		<g>
			<g>
				<path class="st6" d="M219.58,63.54c-1.66,0-2.94,1.89-3.41,2.71l-0.02,0.04l-0.4,0.8l-4.79-33.25l-27.18-14.22h-7.54
					l-27.29,10.9l-4.68,36.57l-0.4-0.8l-0.02-0.04c-0.47-0.81-1.75-2.71-3.41-2.71c-0.68,0-1.92,0.32-2.52,2.45
					c-0.78,2.75,0.58,11.28,1.12,12.66h0l4.57,11.68c0.17,0.43,1.76,4.23,4.75,4.23c0.21,0,0.42-0.02,0.62-0.06
					c0.09,0.36,0.18,0.72,0.27,1.07c0.98,3.93,1.77,7.22,2.26,9.29c0.51,2.16,1.37,4.18,2.54,6.01c1.4,2.18,3.74,5.62,6.96,9.64
					c5.97,7.46,12.99,7.97,13.29,7.99l0.04,0h11.37l0.04,0c0.3-0.02,7.31-0.53,13.29-7.99c3.22-4.02,5.56-7.46,6.96-9.64
					c1.17-1.83,2.03-3.85,2.54-6.01c0.49-2.06,1.28-5.35,2.26-9.29c0.09-0.35,0.18-0.71,0.27-1.07c0.21,0.04,0.41,0.06,0.62,0.06
					c0,0,0,0,0,0c2.99,0,4.58-3.79,4.75-4.23l4.57-11.68c0.53-1.38,1.9-9.91,1.12-12.66C221.5,63.86,220.27,63.54,219.58,63.54z"/>
				<path class="st7" d="M219.58,61.7c-1.01,0-1.89,0.36-2.63,0.89l-4.18-29.01c-0.08-0.59-0.44-1.09-0.97-1.37l-27.18-14.22
					c-0.26-0.14-0.56-0.21-0.85-0.21h-7.54c-0.23,0-0.47,0.04-0.68,0.13l-27.29,10.9c-0.62,0.25-1.06,0.81-1.14,1.47l-4.13,32.26
					c-0.73-0.5-1.58-0.84-2.56-0.84c-0.75,0-3.29,0.27-4.29,3.79c-0.95,3.35,0.61,12.38,1.17,13.84l4.58,11.69
					c0.33,0.84,2.07,4.79,5.64,5.33c0.93,3.76,1.7,6.93,2.18,8.95c0.56,2.36,1.5,4.57,2.78,6.58c1.42,2.22,3.81,5.72,7.07,9.8
					c2.64,3.3,5.93,5.84,9.5,7.33c2.8,1.17,4.88,1.33,5.11,1.34l0.04,0c0.04,0,0.07,0,0.11,0h11.37c0.04,0,0.12,0,0.15-0.01
					c0.23-0.01,2.31-0.17,5.11-1.34c3.57-1.49,6.85-4.03,9.5-7.33c3.27-4.08,5.65-7.58,7.07-9.8c1.29-2,2.22-4.22,2.78-6.58
					c0.47-1.98,1.23-5.12,2.18-8.95c3.57-0.54,5.31-4.5,5.65-5.34l4.57-11.69c0.56-1.45,2.12-10.48,1.17-13.83
					C222.88,61.98,220.34,61.7,219.58,61.7z M219.28,77.99l-4.57,11.67c-0.34,0.85-1.54,3.07-3.04,3.07c-0.1,0-0.2-0.01-0.29-0.03
					c-0.95-0.18-1.88,0.42-2.11,1.36l-0.27,1.07c-0.99,3.99-1.78,7.27-2.27,9.31c-0.46,1.96-1.24,3.79-2.3,5.44
					c-1.38,2.14-3.68,5.53-6.85,9.49c-5.29,6.6-11.3,7.25-11.96,7.3h-11.25c-0.41-0.03-6.55-0.56-11.95-7.3
					c-3.17-3.96-5.47-7.34-6.85-9.49c-1.06-1.65-1.84-3.48-2.3-5.44c-0.5-2.09-1.29-5.4-2.27-9.31l-0.27-1.08
					c-0.24-0.94-1.16-1.54-2.11-1.36c-0.1,0.02-0.2,0.03-0.29,0.03c-1.5,0-2.7-2.21-3.04-3.06l-4.57-11.67
					c-0.44-1.14-1.71-9.23-1.06-11.5c0.15-0.54,0.43-1.12,0.75-1.12c0.37,0,1.13,0.61,1.82,1.79l0.37,0.75
					c0.36,0.73,1.15,1.13,1.95,1c0.8-0.13,1.42-0.78,1.52-1.58l4.55-35.5l25.96-10.37h6.74l25.95,13.58l4.66,32.32
					c0.12,0.8,0.73,1.43,1.53,1.55c0.79,0.13,1.58-0.28,1.94-1l0.37-0.75c0.67-1.16,1.44-1.79,1.82-1.79c0.32,0,0.6,0.58,0.75,1.12
					C220.98,68.76,219.72,76.86,219.28,77.99z"/>
			</g>
			<g>
				<path class="st7" d="M223.5,65.57c-0.91-3.19-3.04-3.53-3.91-3.53c-0.75,0-1.43,0.23-2.03,0.58l0.24-2.99h-2.9l-1.17,14.84
					l3.7-7.45c0,0,1.15-1.98,2.17-1.98c0.43,0,0.85,0.36,1.14,1.38c0.66,2.31-0.63,10.69-1.07,11.68l-4.57,11.68
					c0,0-1.3,3.3-3.41,3.3c-0.34,0-0.69-0.08-1.06-0.28c-0.21-0.11-0.39-0.2-0.55-0.28c-0.23,0.9-0.46,1.81-0.68,2.7
					c-0.96,3.88-1.75,7.15-2.26,9.31c-0.47,1.97-1.26,3.84-2.34,5.54c-1.42,2.21-3.72,5.58-6.87,9.51
					c-5.64,7.05-12.26,7.45-12.26,7.45h-11.28c0,0-6.61-0.4-12.26-7.45c-3.15-3.94-5.45-7.31-6.87-9.51
					c-1.09-1.69-1.87-3.56-2.34-5.54c-0.51-2.16-1.3-5.43-2.26-9.31c-0.22-0.89-0.45-1.79-0.68-2.7c-0.16,0.08-0.34,0.17-0.55,0.28
					c-0.37,0.19-0.73,0.28-1.06,0.28c-2.11,0-3.41-3.3-3.41-3.3l-4.57-11.68c-0.44-0.98-1.73-9.37-1.07-11.68
					c0.29-1.02,0.7-1.38,1.14-1.38c1.02,0,2.17,1.98,2.17,1.98l3.7,7.45l-1.17-14.84h-1.36c-0.58,0-1.1-0.09-1.56-0.26l0.26,3.25
					c-0.6-0.35-1.27-0.58-2.03-0.58c-0.87,0-3.01,0.34-3.91,3.53c-0.9,3.15,0.5,11.85,1.17,13.65l0,0l4.57,11.68
					c0.08,0.2,0.51,1.23,1.27,2.3c1.48,2.08,3.1,2.71,4.33,2.84c0.96,3.88,1.75,7.14,2.24,9.19c0.55,2.33,1.48,4.51,2.74,6.48
					c1.42,2.21,3.79,5.7,7.05,9.77c6.37,7.96,13.99,8.51,14.32,8.53l0.08,0.01h11.45l0.08-0.01c0.32-0.02,7.94-0.57,14.32-8.53
					c3.26-4.07,5.63-7.56,7.05-9.77c1.27-1.97,2.19-4.15,2.74-6.48c0.49-2.06,1.27-5.31,2.24-9.19c1.23-0.12,2.85-0.76,4.33-2.84
					c0.77-1.07,1.19-2.1,1.27-2.3l4.58-11.69l0,0C223,77.42,224.39,68.72,223.5,65.57z"/>
			</g>
		</g>
	</g>
	<path class="st7" d="M208.49,23.14c0,0-5.54-12.53-14.3-13.74c-8.75-1.21-29.91-1.96-38.08,5.28
		c-8.17,7.25-13.28,12.83-12.99,19.18c0,0-3.79,18.72-0.29,33.36c1.08,4.5,1.93,7.78,2.6,10.15c0.34,1.21,2.12,0.98,2.15-0.28
		c0.15-8.95,0.59-24.38,1.82-27.24c1.75-4.08,4.38-11.78,13.72-11.78c9.34,0,33.41,0.76,38.08-3.32c0,0,8.03,6.49,10.07,18.27
		c1.24,7.13,1.66,15.16,1.8,20.93c0.03,1.28,1.86,1.47,2.16,0.23c0.69-2.85,1.42-6.4,1.94-10.38c1.21-9.13,1.54-27.98-1.38-33.26
		C212.86,25.26,208.49,23.14,208.49,23.14z"/>
</g>
<path class="st4" d="M254.75,139.66c-0.25-0.09-26.78-9.37-36.05-12.75l-1.43-0.52l-1.17,1.01c-8.19,7.06-21.88,11.27-36.62,11.27
	c-0.07,0-0.15,0-0.22,0c-0.07,0-0.15,0-0.22,0c-14.74,0-28.42-4.21-36.62-11.27l-1.17-1.01l-1.43,0.52
	c-9.27,3.38-35.8,12.66-36.05,12.75c-0.72,0.25-19.46,4.75-25.23,31.1c-4.78,21.84-9.29,57.11-9.8,59.88h221.04
	c-0.51-2.77-5.02-38.05-9.8-59.88C274.21,144.41,255.47,139.9,254.75,139.66z"/>
<path class="st3" d="M215.04,250.14c0.07-0.45,0.83-3.79,1.55-8.69c1.02-7,2.08-16.23,2.07-16.59c-0.12,0.27-3.48,9.09-6.07,16.97
	c-2.73,8.31-4.69,15.71-4.69,15.71s11.41-1.61,12.14-1.67l-0.02,0.11c0,0-1.27,5.64-2.16,11.9c-1.11,7.83-1.89,16.67-1.88,17.06
	c0.14-0.3,3.15-8.54,5.8-17.09c2.97-9.58,5.61-19.58,5.61-19.58S215.82,250.07,215.04,250.14z"/>
<path class="st3" d="M241.46,255.59c0.31-0.33,2.84-2.64,6.22-6.27c4.82-5.18,10.95-12.16,11.14-12.47
	c-0.26,0.16-8.03,5.49-14.64,10.5c-6.98,5.29-12.8,10.25-12.8,10.25s10.3,5.16,10.93,5.53l-0.08,0.08c0,0-4.25,3.92-8.55,8.56
	c-5.37,5.81-11.04,12.63-11.25,12.96c0.28-0.17,7.45-5.23,14.49-10.75c7.9-6.19,15.75-12.91,15.75-12.91
	S242.14,255.97,241.46,255.59z"/>
<path class="st8" d="M115.62,208.8l-12.58,54.06c-0.8,3.44,1.46,6.84,4.95,7.43c12.85,2.16,41,6.7,46.86,6.01
	c7.66-0.9,10.96,2.03,15.93-1.87c4.97-3.89,9.73-13.83,20.92-15.15c11.2-1.31,20.97-6.32,22.39-2.63c1.42,3.7-1.96,8.51-8.23,9.8
	c-6.26,1.29-1.16,8.6,10.02,4.16c11.17-4.44,18.87-6.17,19.9-1.61c0.68,3.02-20.17,9.94-20.17,9.94s21.2-7.52,22.46-3.03
	c1.24,4.43-22.26,11.46-22.26,11.46s20.56-4.95,21.64-3.12c0.52,0.89,0.48,1.84-0.8,2.71c-0.84,0.58-1.66,1.03-2.41,1.39
	c-1.73,0.81-2.81,2.47-3.25,4.33c-0.11,0.48-0.39,1-0.89,1.55c-2.84,3.09-8.09,6.74-17.52,8.4c-9.43,1.66-36.76-2.03-39.95-0.83
	c-3.19,1.2-58.75,7.17-77.85,0.03s-36.25-3.18-31.43-35.07c3.44-22.73,19.03-74.02,27.71-101.6c1.8-5.71,9.87-5.71,11.68,0
	l12.76,40.41C115.82,206.61,115.87,207.73,115.62,208.8z"/>
<path class="st4" d="M116.39,145.68c0,0-24.41-18.5-42.76,34.24c-8.18,23.49-8.65,54.13-8.65,54.13l48.96,15.99l20.32-28.06
	L116.39,145.68z"/>
<path class="st8" d="M239.51,202.16c0.03,0.31,0.14,0.61,0.33,0.85c3.2,4.16,31.64,41.6,25.59,49.68
	c-6.41,8.56-19.34,26.52-21.71,26.8c-2.37,0.28-21.71,21.04-31.82,17.52c-10.11-3.52-24.69-5.39-27.12-4.13
	c-2.43,1.26-14.9,0.29-14.15,2.96c0.75,2.68,0.36,4.35,4.47,4.68c4.11,0.33,12.14-0.61,12.14-0.61c1.79,1.08-13.96,3.58-24.31-0.24
	c-2.66-0.98-7.87,4.82-3.82,5.81c1.15,0.28,3.2,0.87,5.53,1.57c0.87,0.26,18.01,1.11,17.93,1.82c-0.09,0.76-17.45,1.37-18.43,1.34
	c-3.59-0.09-6.66,0.06-7.43,0.75c-2.11,1.87-3.22,4.11-0.38,5.41c3.38,1.55,4.7,0.42,7.07,0.8c2.37,0.37,19.38-0.47,19.38-0.47
	s-22.37,0.98-23.13,3.18s-0.35,5.73,4.49,4.84c4.84-0.89,19.33-1.39,19.34-1.39c1.42,0.18-11.04,3.5-12.18,4.34
	c-1.06,0.78-1.75,1.84-0.91,3.14c1.84,2.84,10.29,0.74,11.29,0.48c0.07-0.02,0.12-0.04,0.19-0.06c1.59-0.65,23.55-9.54,33.06-10.19
	c13.41-0.92,45.68-23.03,50.16-24.53c4.48-1.5,22.57-20.58,26.73-30.99c4.16-10.4,1.57-38.18-3.65-55.12
	c-12.57-40.86-41.82-59.32-50.7-64.11c-1.13-0.61-2.48,0.28-2.37,1.56L239.51,202.16z"/>
<path class="st4" d="M233.3,141.45c0,0,21.3-18.14,42.84,30.14c8.58,19.23,16.07,42.87,16.07,42.87l-40.85,15.24l-18.17-23.02
	L233.3,141.45z"/>
</svg>
