<?xml version="1.0" encoding="utf-8"?>
<!-- Generator: Adobe Illustrator 24.1.0, SVG Export Plug-In . SVG Version: 6.00 Build 0)  -->
<svg version="1.1" id="Layer_1" xmlns="http://www.w3.org/2000/svg" xmlns:xlink="http://www.w3.org/1999/xlink" x="0px" y="0px"
	 viewBox="0 0 360 360" style="enable-background:new 0 0 360 360;" xml:space="preserve">
<style type="text/css">
	.st0{clip-path:url(#SVGID_2_);fill:#C4DEE9;}
	.st1{clip-path:url(#SVGID_2_);}
	.st2{fill:#FFFFFF;}
	.st3{fill:#2A4D7B;}
	.st4{fill:#EA5531;}
	.st5{clip-path:url(#SVGID_2_);fill:#FFFFFF;}
	.st6{clip-path:url(#SVGID_2_);fill:none;stroke:#2A4D7B;stroke-width:4.5;stroke-miterlimit:10;}
	.st7{clip-path:url(#SVGID_2_);fill:#156DA4;}
</style>
<g>
	<defs>
		<rect id="SVGID_1_" y="0.21" width="358.72" height="358.72"/>
	</defs>
	<clipPath id="SVGID_2_">
		<use xlink:href="#SVGID_1_"  style="overflow:visible;"/>
	</clipPath>
	<rect y="0.21" class="st0" width="360.8" height="362.26"/>
	<g class="st1">
		<g>
			<path class="st2" d="M160.61,228.19l24.36,7.31c5.47,1.6,11.22-1.38,13.08-6.79l0.08-0.23l12.7-20.46l3.81-16.42h9.38l0.29,0.09
				c0.85,0.25,1.58-0.1,2.04-0.44c0.77-0.56,1.1-1.3,1.12-1.55l-0.01-0.07l-5-33.48l0.19-0.52c3.86-10.41,5.27-20.19,4.24-29.25
				c-6.69,0.56-34.86-1.94-46.91,1.93c-7.61,2.45-14.62,17.04-14.62,17.04s-16.26-9.29-21.75,9.53c-3.46,11.84,1.16,18.5,1.16,18.5
				s-18.6,15.58-24.72,20.69c-2.09,1.74-5.27,3.97-7.84,5.71c-0.02,0.04-0.03,0.09-0.04,0.13l-0.1,0.21l-20.33,36.18
				c6.49,6.78,13.32,12.35,19.98,16.9c3.04,1.84,6.52,3.88,10.51,6.14c2.8,1.58,5.6,3.13,8.32,4.61c7.75,3.63,14.34,5.84,18.62,7.06
				l-2.95-11.49L160.61,228.19z"/>
			<path class="st3" d="M97.9,168.35c-1.48-7.27-2.63-15.16-3.02-23.14C94.83,151.84,95.75,159.11,97.9,168.35z"/>
			<path class="st3" d="M91.71,236.32l20.33-36.18l0.1-0.21c0.02-0.04,0.03-0.09,0.04-0.13c-2.34,1.58-4.17,2.75-4.17,2.75
				s-0.35-0.84-0.93-2.37l-18.64,33.18c0.21-0.14,0.33-0.21,0.33-0.21C89.75,234.24,90.73,235.29,91.71,236.32z"/>
			<path class="st3" d="M228.1,126.18c-0.23,0.1-0.65,0.17-1.22,0.22c1.03,9.05-0.38,18.83-4.24,29.25l-0.19,0.52l5,33.48l0.01,0.07
				c-0.02,0.24-0.35,0.98-1.12,1.55c-0.46,0.34-1.18,0.69-2.04,0.44l-0.29-0.09h-9.38l-3.81,16.42l-12.7,20.46l-0.08,0.23
				c-1.85,5.41-7.61,8.39-13.08,6.79l-24.36-7.31l-14.42,31.36l2.95,11.49c2.33,0.67,3.97,1.05,4.75,1.22l-3.16-12.3l12.22-26.58
				l20.79,6.24c7.61,2.22,15.59-1.84,18.28-9.28l12.82-20.65l3.2-13.79h5.38c2.15,0.51,4.35-0.11,6.11-1.72
				c1.63-1.5,2.47-3.54,2.16-5.22l-4.83-32.35c1.67-4.6,2.88-9.14,3.64-13.57c-0.49-0.5-0.95-1.08-1.41-1.93
				c-2.53-4.7-2.47-9.31,0.17-12.33l0.21-0.24c0.61-0.73,1.24-0.97,1.78-0.99c-0.08-0.93-0.18-1.84-0.3-2.76
				C230.06,125.29,229.12,125.76,228.1,126.18z"/>
			<path class="st3" d="M111.7,253.22c6.6,4.51,13.04,8.03,18.83,10.75c-2.72-1.48-5.52-3.03-8.32-4.61
				C118.21,257.11,114.74,255.07,111.7,253.22z"/>
			<path class="st3" d="M112.19,199.8c2.56-1.73,5.75-3.97,7.84-5.71c6.12-5.11,24.72-20.69,24.72-20.69s-4.62-6.66-1.16-18.5
				c5.5-18.82,21.75-9.53,21.75-9.53s7.01-14.59,14.62-17.04c12.05-3.87,40.22-1.37,46.91-1.93c0.57-0.05,0.99-0.12,1.22-0.22
				c1.02-0.43,1.96-0.9,2.85-1.4c12.56-7.11,12.23-20.98,12.23-20.98s-50.04-26.48-67.31-31.62c-39.04-11.62-68.25,11-78.13,44.49
				c-2.64,8.96-3.32,18.81-2.85,28.54c0.38,7.97,1.54,15.87,3.02,23.14c3,14.76,7.31,26.91,9.19,31.83
				c0.58,1.53,0.93,2.37,0.93,2.37S109.85,201.38,112.19,199.8z"/>
			<path class="st2" d="M289.88,218.84c-0.55-1.28-1.04-2.59-1.51-3.86c-0.23-0.63-0.47-1.25-0.71-1.88l-22.37-57.82
				c-0.45-1.17-0.45-1.17-1.27-1.7l-31.92-20.91c-0.07-0.04-0.13-0.09-0.2-0.14c-0.83,1.91-0.12,4.53,0.97,6.54
				c0.43,0.8,0.75,1.06,1.7,1.81c5.32,4.23,12.09,10.27,16.47,14.69c2.54,2.57,10.68,21.12,11.94,29.22
				c0.36,2.31,0.55,4.34,0.59,6.23c0,0.02,0.01,0.07,0.01,0.13c0.06,0.6,0.14,1.43-0.29,2.2c-0.78,1.42-2.58,1.83-5.08,1.16
				c-6.09-1.65-8.38-8.36-10.05-13.26c-0.25-0.74-0.5-1.45-0.74-2.11c-1.56-4.23-3.88-9.1-7.97-9.26c-0.42-0.02-1.02,0.05-1.51,0.15
				l8.85,26.33c0.28,0.84,0.56,1.69,0.83,2.53c1.07,3.31,2.07,6.43,3.67,9.31c2.77,4.98,6.62,8.63,10.02,11.54l6.02,5.15
				c0.35,0.3,0.8,0.63,1.27,0.98c1.13,0.84,2.41,1.79,3.27,2.98c0.32,0.45,0.55,0.77,3.55,14.22c1.99,8.94,4.34,19.95,6.45,30.2
				c2.66,12.92,6.78,33.62,8.97,48.04c11.1-8.78,21.15-18.85,29.9-29.97c-6.38-14.95-16.9-39.69-24.09-56.6
				C293.03,226.22,290.41,220.05,289.88,218.84z"/>
			<path class="st3" d="M293.83,217.15c-0.51-1.19-0.98-2.45-1.44-3.67c-0.24-0.64-0.48-1.29-0.73-1.92l-22.37-57.81
				c-0.66-1.71-1.03-2.51-2.92-3.75l-31.92-20.91c-0.1-0.07-0.21-0.15-0.32-0.24c-0.41-0.31-0.91-0.7-1.54-0.93
				c-0.24-0.15-0.74-0.4-1.34-0.37c-0.54,0.02-1.17,0.27-1.78,0.99l-0.21,0.24c-2.64,3.02-2.7,7.63-0.17,12.33
				c0.45,0.84,0.91,1.43,1.41,1.93c0.43,0.43,0.89,0.8,1.4,1.21c5.12,4.07,11.89,10.1,16.08,14.34c1.65,1.79,9.54,19.05,10.76,26.86
				v0c0.28,1.8,0.45,3.41,0.51,4.89c-3.82-1.1-5.6-6.3-7.02-10.48c-0.27-0.78-0.52-1.52-0.78-2.21
				c-1.19-3.22-4.35-11.77-11.83-12.06c-0.18-0.01-4.52-0.15-5.94,2.24c-0.74,1.24-0.26,2.41-0.03,2.98
				c0.03,0.08,0.07,0.16,0.1,0.25l8.97,26.67c0.28,0.82,0.54,1.65,0.81,2.48c1.08,3.36,2.2,6.84,4.01,10.08
				c3.1,5.57,7.29,9.55,10.98,12.71l6.02,5.15c0.47,0.4,0.99,0.79,1.5,1.17c0.79,0.58,1.67,1.24,2.18,1.84
				c1.3,4.6,14.75,57.13,18.73,84.88c1.31-0.98,2.61-1.99,3.89-3c-2.19-14.43-6.31-26.84-8.97-39.76
				c-2.11-10.25-4.46-21.25-6.45-30.2c-2.99-13.45-3.23-13.77-3.55-14.22c-0.86-1.19-2.14-2.15-3.27-2.98
				c-0.47-0.35-0.92-0.68-1.27-0.98l-6.02-5.15c-3.4-2.91-7.25-6.56-10.02-11.54c-1.6-2.88-2.61-6-3.67-9.31
				c-0.27-0.85-0.55-1.69-0.83-2.53l-8.85-26.33c0.49-0.1,1.09-0.17,1.51-0.15c4.09,0.16,6.41,5.03,7.97,9.26
				c0.24,0.66,0.49,1.37,0.74,2.11c1.67,4.9,3.96,11.62,10.05,13.26c2.5,0.67,4.3,0.26,5.08-1.16c0.43-0.78,0.35-1.6,0.29-2.2
				c-0.01-0.06-0.01-0.12-0.01-0.13c-0.03-1.89-0.23-3.92-0.59-6.23c-1.26-8.09-9.4-26.65-11.94-29.22
				c-4.38-4.42-11.15-10.46-16.47-14.69c-0.95-0.75-1.27-1.01-1.7-1.81c-1.08-2.01-1.8-4.63-0.97-6.54c0.07,0.05,0.13,0.09,0.2,0.14
				l31.92,20.91c0.82,0.53,0.82,0.53,1.27,1.7l22.37,57.82c0.24,0.62,0.48,1.25,0.71,1.88c0.47,1.27,0.96,2.58,1.51,3.86
				c0.52,1.21,3.14,7.39,6.76,15.9c7.19,16.91,17.71,41.66,24.09,56.6c1.02-1.29,2.01-2.6,3-3.92
				c-6.57-15.41-16.69-39.2-23.13-54.36C296.98,224.54,294.35,218.36,293.83,217.15z"/>
		</g>
		<path class="st4" d="M219.79,74.94c0.08-0.53,0.98-4.48,1.83-10.29c1.21-8.28,2.46-19.2,2.45-19.63
			c-0.15,0.32-4.12,10.75-7.18,20.07c-3.23,9.84-5.55,18.59-5.55,18.59s13.49-1.91,14.36-1.97l-0.02,0.13c0,0-1.5,6.68-2.55,14.08
			c-1.31,9.26-2.24,19.72-2.22,20.18c0.16-0.36,3.73-10.1,6.86-20.22c3.52-11.34,6.64-23.16,6.64-23.16S220.71,74.86,219.79,74.94z"
			/>
		<path class="st4" d="M262.29,92.62c0.37-0.39,3.36-3.12,7.36-7.42c5.7-6.12,12.95-14.39,13.19-14.75
			c-0.31,0.18-9.5,6.5-17.32,12.43c-8.25,6.25-15.14,12.13-15.14,12.13s12.18,6.11,12.93,6.55l-0.09,0.09c0,0-5.03,4.64-10.11,10.13
			c-6.35,6.87-13.06,14.94-13.31,15.33c0.33-0.2,8.81-6.19,17.15-12.72c9.34-7.32,18.64-15.27,18.64-15.27S263.1,93.08,262.29,92.62
			z"/>
	</g>
	<path class="st5" d="M331.68,304.53l-11.02-13.87l-10.04-7.58l-11.58,6.4c0,0-2.55,6.13-5.54,12.8l-0.07-0.18l-8.5,12.55
		l-84.62,46.96l19.43,19.43l25.89-17.93c16.47,2.13,41.22,4.96,44.71,3.29c5.3-2.54,11.23-10.38,19.28-15.89
		c8.05-5.51,21.19-24.58,22.89-30.52C334.23,314.06,331.68,304.53,331.68,304.53z"/>
	<path class="st6" d="M290.9,309.16c0,0-46.79,31.73-97.2,52.7"/>
	<path class="st6" d="M321.94,288.47c6.05,12.5,13.71,28.63,4.84,39.92l-0.7,0.91c0,0-20.17,33.93-70.57,54.89"/>
	<path class="st7" d="M200.83,361.15c-1.47-1.52-4.3-5.48-5.76-7c-2.52-2.71-5.07-5.36-7.56-8.1c-0.55-0.6-1.1-1.2-1.65-1.8
		c-10.89-37.63-31.68-72.09-31.68-72.09s-0.18-0.03-0.5-0.11c-0.77-0.17-2.42-0.55-4.75-1.22c-4.28-1.23-10.87-3.43-18.62-7.06
		c-5.79-2.72-12.23-6.23-18.83-10.75c-6.66-4.55-13.49-10.12-19.98-16.9c-0.99-1.03-1.96-2.08-2.93-3.17c0,0-0.12,0.07-0.33,0.21
		c-3.45,2.2-79.87,18.51-83.27,126.58c2.78,3.85,7.15,3.74,12.45,1.41v61.39h152.77l-0.35-50.06h23.66v-11.36
		C196.04,361.34,198.52,361.41,200.83,361.15z"/>
</g>
</svg>
