<?xml version="1.0" encoding="utf-8"?>
<!-- Generator: Adobe Illustrator 24.1.0, SVG Export Plug-In . SVG Version: 6.00 Build 0)  -->
<svg version="1.1" xmlns="http://www.w3.org/2000/svg" xmlns:xlink="http://www.w3.org/1999/xlink" x="0px" y="0px"
	 viewBox="0 0 490.32 490.54" style="enable-background:new 0 0 490.32 490.54;" xml:space="preserve">
<style type="text/css">
	.st0{clip-path:url(#SVGID_2_);fill:#C4DEE9;}
	.st1{clip-path:url(#SVGID_2_);}
	.st2{fill:#FFFFFF;}
	.st3{fill:#2A4D7B;}
	.st4{fill:#156DA4;}
	.st5{clip-path:url(#SVGID_2_);fill:#E6503D;}
</style>
<g id="Layer_1">
</g>
<g id="Layer_2">
</g>
<g id="clipping">
	<g>
		<defs>
			<rect id="SVGID_1_" x="-0.44" y="-0.5" width="488.82" height="488.82"/>
		</defs>
		<clipPath id="SVGID_2_">
			<use xlink:href="#SVGID_1_"  style="overflow:visible;"/>
		</clipPath>
		<rect x="-149.69" y="-155.88" class="st0" width="750.4" height="750.4"/>
		<g class="st1">
			<path class="st2" d="M231.94,277.15l36.3,18.88c8.47,2.27,17.26-2.38,20.12-10.73l0.17-0.49l9.2-14.09l-25.92-13.75l3.73-4
				c0.44-0.47,11.03-11.53,30.39-7.87c3.92,0.74,6.31,0.05,7.47-0.49l6.1-26.25h15.93l0.58,0.17c0.83,0.24,1.67,0.09,2.51-0.46
				c1.07-0.7,1.63-1.72,1.74-2.12l-8.18-54.74l0.37-1.01c6.25-16.88,8.54-32.72,6.86-47.38c-12.03,0.71-56.52-3.09-75.77,3.1
				c-12.41,3.99-23.83,27.78-23.83,27.78s-26.5-15.15-35.46,15.53c-5.64,19.29,1.9,30.16,1.9,30.16s-30.31,25.4-40.29,33.72
				c-3.15,2.63-7.83,5.94-11.83,8.66c-0.11,0.39-0.23,0.77-0.38,1.13l-0.2,0.41l-33.24,59.15c7.71,7.99,15.7,14.94,23.65,20.97
				c6.82,4.37,15.5,9.61,26.6,15.87c7.13,4.02,14.25,7.9,20.83,11.41c8.59,3.6,15.92,6.03,21.26,7.59l-4.77-18.57L231.94,277.15z"/>
			<path class="st3" d="M279.04,32.96c5.59,2.43,11.61,5.17,17.78,8.05C291.25,37.98,285.32,35.28,279.04,32.96z"/>
			<path class="st3" d="M124.65,134.08c-1.47,15.62,0.32,32.22,6.93,57.09c0.29,1.09,0.76,2.38,1.35,3.83
				C128.47,177.13,124.62,155.49,124.65,134.08z"/>
			<path class="st3" d="M120.2,292.45l33.24-59.15l0.2-0.41c0.15-0.36,0.27-0.74,0.38-1.13c-4.26,2.9-7.74,5.13-7.74,5.13
				s-0.7-1.67-1.84-4.7l-31.21,55.54c1.09-0.64,1.68-0.96,1.68-0.96C116.66,288.72,118.43,290.61,120.2,292.45z"/>
			<path class="st3" d="M342,112.41c-0.47,0.2-1.39,0.32-2.68,0.4c1.67,14.66-0.61,30.5-6.86,47.38l-0.37,1.01l8.18,54.74
				c-0.1,0.4-0.67,1.42-1.74,2.12c-0.84,0.55-1.68,0.71-2.51,0.46l-0.58-0.17h-15.93l-6.1,26.25c-1.16,0.54-3.55,1.23-7.47,0.49
				c-19.36-3.66-29.95,7.4-30.39,7.87l-3.73,4l25.92,13.75l-9.2,14.09l-0.17,0.49c-2.86,8.34-11.65,13-20.12,10.73l-36.3-18.88
				l-24.17,52.57l4.77,18.57c5.43,1.59,8.78,2.27,9.26,2.37l-5.17-20.14l19.25-41.87l29.24,15.21l0.39,0.12
				c12.72,3.71,26.05-3.05,30.59-15.43l13.66-20.92l-23.16-12.29c3.79-1.86,9.75-3.51,17.77-1.99c10.22,1.93,15.17-2.67,15.7-3.21
				l0.85-0.85l5.23-22.54h8.15c3.66,0.83,7.54-0.26,10.5-2.98c2.82-2.59,4.27-6.16,3.73-9.13l-7.85-52.54
				c6.64-18.33,8.83-36.01,6.6-52.34C345.66,110.71,343.92,111.61,342,112.41z"/>
			<path class="st3" d="M143.86,313.42c16.96,12.86,33.77,21.55,47.43,27.27c-6.58-3.51-13.7-7.39-20.83-11.41
				C159.36,323.03,150.68,317.8,143.86,313.42z"/>
			<path class="st3" d="M154.03,231.75c3.99-2.72,8.68-6.03,11.83-8.66c9.98-8.32,40.29-33.72,40.29-33.72s-7.53-10.86-1.9-30.16
				c8.96-30.68,35.46-15.53,35.46-15.53s11.42-23.79,23.83-27.78c19.26-6.19,63.75-2.39,75.77-3.1c1.29-0.08,2.21-0.2,2.68-0.4
				c1.91-0.8,3.66-1.7,5.29-2.66c19.8-11.69,19.29-33.81,19.29-33.81s-37.01-19.58-69.77-34.92c-6.17-2.89-12.18-5.63-17.78-8.05
				c-8.8-3.82-16.55-6.88-22.16-8.55C193.25,5.47,145.63,42.34,129.52,96.92c-3.46,11.73-4.85,24.4-4.87,37.16
				c-0.03,21.41,3.82,43.05,8.28,60.93c4.22,16.9,8.98,30.43,11.52,37.19c1.14,3.03,1.84,4.7,1.84,4.7S149.77,234.66,154.03,231.75z
				"/>
			<path class="st4" d="M221.8,350.65c-0.48-0.1-3.84-0.78-9.26-2.37c-5.33-1.56-12.67-3.99-21.26-7.59
				c-13.65-5.73-30.47-14.42-47.43-27.27c-7.96-6.03-15.95-12.98-23.65-20.97c-1.78-1.84-3.54-3.73-5.28-5.68
				c0,0-0.59,0.33-1.68,0.96C100.9,294.93-14.21,353.9-29.1,504.96c53.78,65.63,164.07,18.02,255.53,18.02
				c19.47,0,38.48-1.92,56.89-5.53c-7.03-76.59-61.45-166.79-61.45-166.79S221.85,350.66,221.8,350.65z"/>
		</g>
		<polygon class="st5" points="345.89,212.59 319.56,237.76 293.24,212.59 278.36,227.46 304.68,253.79 278.36,280.11 
			293.24,294.99 319.56,268.66 345.89,294.99 360.76,280.11 335.59,253.79 360.76,227.46 		"/>
	</g>
</g>
</svg>
