<?xml version="1.0" encoding="utf-8"?>
<!-- Generator: Adobe Illustrator 24.1.0, SVG Export Plug-In . SVG Version: 6.00 Build 0)  -->
<svg version="1.1" xmlns="http://www.w3.org/2000/svg" xmlns:xlink="http://www.w3.org/1999/xlink" x="0px" y="0px"
	 viewBox="0 0 498.96 498.88" style="enable-background:new 0 0 498.96 498.88;" xml:space="preserve">
<style type="text/css">
	.st0{clip-path:url(#SVGID_2_);fill:#C4DEE9;}
	.st1{clip-path:url(#SVGID_2_);fill:#FFFFFF;}
	.st2{clip-path:url(#SVGID_2_);fill:#2A4D7B;}
	.st3{clip-path:url(#SVGID_2_);fill:#156DA4;}
	.st4{clip-path:url(#SVGID_2_);}
	.st5{fill:#EA5531;}
</style>
<g id="Layer_1">
</g>
<g id="Layer_2">
</g>
<g id="clipping">
	<g>
		<defs>
			<rect id="SVGID_1_" x="0.96" y="-0.75" width="497.67" height="497.67"/>
		</defs>
		<clipPath id="SVGID_2_">
			<use xlink:href="#SVGID_1_"  style="overflow:visible;"/>
		</clipPath>
		<rect x="-157.94" y="-159.61" class="st0" width="752.53" height="751.43"/>
		<path class="st1" d="M257.21,278.22l39.7,11.92c8.92,2.61,18.29-2.25,21.32-11.07l0.13-0.38l20.7-33.34l6.21-26.76h15.29
			l0.48,0.14c1.39,0.41,2.57-0.16,3.32-0.71c1.25-0.92,1.79-2.13,1.82-2.52l-0.02-0.11L358,160.83l0.31-0.84
			c6.29-16.98,8.59-32.91,6.91-47.67c-10.91,0.92-56.82-3.17-76.47,3.15c-12.41,3.99-23.83,27.78-23.83,27.78
			s-26.5-15.15-35.46,15.53c-5.64,19.29,1.9,30.16,1.9,30.16s-30.31,25.4-40.29,33.72c-3.4,2.84-8.59,6.48-12.77,9.3
			c-0.03,0.07-0.04,0.15-0.07,0.21l-0.17,0.35l-33.14,58.97c10.59,11.05,21.71,20.13,32.57,27.55c4.95,3.01,10.62,6.33,17.13,10.01
			c4.56,2.58,9.12,5.1,13.55,7.5c12.63,5.92,23.38,9.51,30.36,11.52l-4.81-18.73L257.21,278.22z"/>
		<path class="st2" d="M144.91,291.48l33.14-58.97l0.17-0.35c0.03-0.07,0.04-0.14,0.07-0.21c-3.82,2.58-6.8,4.49-6.8,4.49
			s-0.57-1.37-1.52-3.86l-30.39,54.08c0.35-0.22,0.54-0.34,0.54-0.34C141.71,288.09,143.3,289.8,144.91,291.48z"/>
		<path class="st2" d="M154.99,180.69c-2.4-11.84-4.29-24.71-4.91-37.7C149.99,153.78,151.48,165.64,154.99,180.69z"/>
		<path class="st2" d="M367.21,111.96c-0.38,0.16-1.06,0.27-1.99,0.35c1.68,14.75-0.62,30.69-6.91,47.67l-0.31,0.84l8.15,54.57
			l0.02,0.11c-0.03,0.4-0.57,1.6-1.82,2.52c-0.75,0.55-1.93,1.12-3.32,0.71l-0.48-0.14h-15.29l-6.21,26.76l-20.7,33.34l-0.13,0.38
			c-3.02,8.82-12.4,13.68-21.32,11.07l-39.7-11.92l-23.5,51.11l4.81,18.73c3.8,1.09,6.48,1.71,7.74,1.98L241.11,330l19.92-43.32
			l33.89,10.18c12.41,3.62,25.41-3.01,29.79-15.12l20.89-33.66l5.22-22.47h8.77c3.49,0.83,7.09-0.17,9.95-2.8
			c2.65-2.44,4.02-5.77,3.52-8.51l-7.88-52.72c6.6-18.17,8.82-35.7,6.66-51.88C370.41,110.5,368.87,111.27,367.21,111.96z"/>
		<path class="st2" d="M177.48,319.03c10.75,7.35,21.24,13.08,30.68,17.51c-4.43-2.41-8.99-4.93-13.55-7.5
			C188.1,325.36,182.44,322.04,177.48,319.03z"/>
		<path class="st2" d="M178.29,231.95c4.18-2.83,9.37-6.46,12.77-9.3c9.98-8.32,40.29-33.72,40.29-33.72s-7.53-10.86-1.9-30.16
			c8.96-30.68,35.46-15.53,35.46-15.53s11.42-23.79,23.83-27.78c19.65-6.32,65.56-2.23,76.47-3.15c0.93-0.08,1.61-0.19,1.99-0.35
			c1.66-0.69,3.2-1.46,4.64-2.28c20.48-11.58,19.94-34.19,19.94-34.19s-81.56-43.15-109.71-51.53
			C218.45,5.02,170.84,41.89,154.73,96.47c-4.31,14.6-5.42,30.66-4.65,46.52c0.63,12.99,2.51,25.86,4.91,37.7
			c4.88,24.06,11.92,43.86,14.98,51.9c0.95,2.49,1.52,3.86,1.52,3.86S174.47,234.53,178.29,231.95z"/>
		<path class="st3" d="M246.26,350.04c-1.26-0.27-3.94-0.89-7.74-1.98c-6.98-2-17.73-5.59-30.36-11.52
			c-9.44-4.43-19.93-10.16-30.68-17.51c-10.86-7.42-21.99-16.5-32.57-27.55c-1.61-1.68-3.2-3.4-4.78-5.16c0,0-0.2,0.12-0.54,0.34
			c-7.32,4.68-117.67,67.92-144.15,233.43c53.53,57.31,157.59-7.41,242.2-7.41c23.89,0,47.1-2.88,69.34-8.27
			c-11.24-73.54-59.9-154.2-59.9-154.2S246.79,350.16,246.26,350.04z"/>
		<g class="st4">
			<circle class="st5" cx="228.64" cy="278.21" r="15.67"/>
			<g>
				<path class="st5" d="M228.64,312.13c-18.71,0-33.93-15.22-33.93-33.93c0-18.71,15.22-33.93,33.93-33.93
					c18.71,0,33.93,15.22,33.93,33.93C262.56,296.91,247.34,312.13,228.64,312.13z M228.64,251.77c-14.58,0-26.44,11.86-26.44,26.44
					s11.86,26.44,26.44,26.44c14.58,0,26.44-11.86,26.44-26.44S243.22,251.77,228.64,251.77z"/>
			</g>
			<g>
				<path class="st5" d="M228.64,329.71c-28.4,0-51.5-23.1-51.5-51.5c0-28.4,23.1-51.5,51.5-51.5c28.4,0,51.5,23.1,51.5,51.5
					C280.14,306.6,257.03,329.71,228.64,329.71z M228.64,233.12c-24.86,0-45.08,20.22-45.08,45.08c0,24.86,20.22,45.08,45.08,45.08
					c24.86,0,45.08-20.22,45.08-45.08C273.72,253.35,253.49,233.12,228.64,233.12z"/>
			</g>
		</g>
	</g>
</g>
</svg>
